{"asset":{"generator":"Khronos glTF Blender I/O v1.1.16","version":"2.0"},"accessors":[{"bufferView":0,"componentType":5126,"count":561,"max":[1.000000238418579,1.0,1.0000003576278687],"min":[-0.9999998211860657,-1.0,-0.9999991655349731],"type":"VEC3"},{"bufferView":1,"componentType":5126,"count":561,"type":"VEC3"},{"bufferView":2,"componentType":5126,"count":561,"type":"VEC2"},{"bufferView":3,"componentType":5123,"count":2880,"type":"SCALAR"}],"bufferViews":[{"buffer":0,"byteLength":6732},{"buffer":0,"byteLength":6732,"byteOffset":6732},{"buffer":0,"byteLength":4488,"byteOffset":13464},{"buffer":0,"byteLength":5760,"byteOffset":17952},{"buffer":0,"byteLength":2501990,"byteOffset":23712},{"buffer":0,"byteLength":766001,"byteOffset":2525704},{"buffer":0,"byteLength":20565,"byteOffset":3291708}],"buffers":[{"byteLength":3312276,"uri":"bal2.bin"}],"cameras":[{"name":"Camera","perspective":{"yfov":0.5033799372418416,"zfar":100.0,"znear":0.10000000149011612},"type":"perspective"}],"images":[{"name":"01_Textured_Sphere_Normal","bufferView":4,"mimeType":"image/png"},{"name":"01_Textured_Sphere_BaseColor","bufferView":5,"mimeType":"image/png"},{"name":"01_Textured_Sphere_OcclusionRoughnessMetallic","bufferView":6,"mimeType":"image/png"}],"materials":[{"name":"Textured_Sphere","doubleSided":true,"normalTexture":{"index":0},"pbrMetallicRoughness":{"baseColorTexture":{"index":1},"metallicRoughnessTexture":{"index":2}}}],"meshes":[{"name":"Textured_Sphere","primitives":[{"attributes":{"POSITION":0,"NORMAL":1,"TEXCOORD_0":2},"indices":3,"material":0}]}],"nodes":[{"name":"Tectured_Sphere","mesh":0},{"name":"Camera_Orientation","camera":0,"rotation":[-0.70710677,0.0,0.0,0.70710677]},{"name":"Camera","children":[1],"rotation":[0.48353603,0.3368716,-0.2087036,0.7804827],"translation":[4.3535585,3.4661055,4.3212047]}],"scene":0,"scenes":[{"name":"Scene","nodes":[0,2]}],"textures":[{"source":0},{"source":1},{"source":2}]}