{"asset":{"generator":"COLLADA2GLTF","version":"2.0"},"accessors":[{"bufferView":0,"componentType":5123,"count":12636,"max":[2398.0],"min":[0.0],"type":"SCALAR"},{"bufferView":1,"componentType":5126,"count":2399,"max":[0.9995989799499512,0.999580979347229,0.9984359741210938],"min":[-0.9990839958190918,-1.0,-0.9998319745063782],"type":"VEC3"},{"bufferView":1,"byteOffset":28788,"componentType":5126,"count":2399,"max":[96.17990112304688,163.97000122070312,53.92519760131836],"min":[-69.29850006103516,9.929369926452637,-61.32819747924805],"type":"VEC3"},{"bufferView":2,"componentType":5126,"count":2399,"max":[0.9833459854125977,0.9800369739532471],"min":[0.026409000158309937,0.01996302604675293],"type":"VEC2"}],"bufferViews":[{"buffer":0,"byteLength":25272,"byteOffset":76768,"target":34963},{"buffer":0,"byteLength":57576,"byteStride":12,"target":34962},{"buffer":0,"byteLength":19192,"byteOffset":57576,"byteStride":8,"target":34962},{"buffer":0,"byteLength":16302,"byteOffset":102040}],"buffers":[{"byteLength":118344,"uri":"Current.bin"}],"cameras":[{"perspective":{"aspectRatio":1.5,"yfov":0.6605925559997559,"zfar":10000.0,"znear":1.0},"type":"perspective"}],"images":[{"bufferView":3,"mimeType":"image/png"}],"materials":[{"name":"blinn3-fx","pbrMetallicRoughness":{"baseColorTexture":{"index":0},"metallicFactor":0.0}}],"meshes":[{"name":"LOD3spShape","primitives":[{"attributes":{"NORMAL":1,"POSITION":2,"TEXCOORD_0":3},"indices":0,"material":0}]}],"nodes":[{"children":[2,1],"matrix":[0.01,0.0,0.0,0.0,0.0,0.01,0.0,0.0,0.0,0.0,0.01,0.0,0.0,0.0,0.0,1.0]},{"camera":0,"matrix":[-0.7289687,0.0,-0.68454707,0.0,-0.4252049,0.78369343,0.4527973,0.0,0.53647506,0.6211478,-0.571288,0.0,400.113,463.264,-431.07803,1.0]},{"mesh":0}],"samplers":[{"magFilter":9729,"minFilter":9986}],"scene":0,"scenes":[{"nodes":[0]}],"textures":[{"sampler":0,"source":0}]}