{"asset":{"generator":"glTF Tools for Unity","version":"2.0"},"accessors":[{"bufferView":4,"componentType":5126,"count":926,"type":"VEC2"},{"bufferView":5,"componentType":5126,"count":926,"type":"VEC3"},{"bufferView":6,"componentType":5126,"count":926,"type":"VEC4"},{"bufferView":7,"componentType":5126,"count":926,"max":[7.74559927,12.8321095,2.31570983],"min":[-7.74559927,-12.8321095,-2.31570983],"type":"VEC3"},{"bufferView":8,"componentType":5123,"count":2616,"type":"SCALAR"},{"bufferView":9,"componentType":5126,"count":756,"type":"VEC2"},{"bufferView":10,"componentType":5126,"count":756,"type":"VEC3"},{"bufferView":11,"componentType":5126,"count":756,"type":"VEC4"},{"bufferView":12,"componentType":5126,"count":756,"max":[0.129208073,0.6523504,0.129208073],"min":[-0.129208073,-0.6523504,-0.129208073],"type":"VEC3"},{"bufferView":13,"componentType":5123,"count":3744,"type":"SCALAR"},{"bufferView":14,"componentType":5126,"count":2463,"type":"VEC2"},{"bufferView":15,"componentType":5126,"count":2463,"type":"VEC3"},{"bufferView":16,"componentType":5126,"count":2463,"type":"VEC4"},{"bufferView":17,"componentType":5126,"count":2463,"max":[1.03408229,2.529281,1.03408468],"min":[-1.03408229,-2.529281,-1.03408468],"type":"VEC3"},{"bufferView":18,"componentType":5123,"count":9822,"type":"SCALAR"}],"bufferViews":[{"buffer":0,"byteLength":4461532},{"buffer":0,"byteLength":2078597,"byteOffset":4461532},{"buffer":0,"byteLength":2928441,"byteOffset":6540129},{"buffer":0,"byteLength":169335,"byteOffset":9468570},{"buffer":0,"byteLength":7408,"byteOffset":9637908},{"buffer":0,"byteLength":11112,"byteOffset":9645316},{"buffer":0,"byteLength":14816,"byteOffset":9656428},{"buffer":0,"byteLength":11112,"byteOffset":9671244},{"buffer":0,"byteLength":5232,"byteOffset":9682356},{"buffer":0,"byteLength":6048,"byteOffset":9687588},{"buffer":0,"byteLength":9072,"byteOffset":9693636},{"buffer":0,"byteLength":12096,"byteOffset":9702708},{"buffer":0,"byteLength":9072,"byteOffset":9714804},{"buffer":0,"byteLength":7488,"byteOffset":9723876},{"buffer":0,"byteLength":19704,"byteOffset":9731364},{"buffer":0,"byteLength":29556,"byteOffset":9751068},{"buffer":0,"byteLength":39408,"byteOffset":9780624},{"buffer":0,"byteLength":29556,"byteOffset":9820032},{"buffer":0,"byteLength":19644,"byteOffset":9849588}],"buffers":[{"byteLength":9869232,"uri":"Current.bin"}],"images":[{"bufferView":0,"mimeType":"image/png"},{"bufferView":1,"mimeType":"image/png"},{"bufferView":2,"mimeType":"image/png"},{"bufferView":3,"mimeType":"image/png"}],"materials":[{"name":"LanternPost_Mat","emissiveFactor":[1.0,1.0,1.0],"emissiveTexture":{"index":3},"normalTexture":{"index":2},"pbrMetallicRoughness":{"baseColorTexture":{"index":0},"metallicRoughnessTexture":{"index":1}}}],"meshes":[{"name":"LanternPole_Body","primitives":[{"attributes":{"TEXCOORD_0":0,"NORMAL":1,"TANGENT":2,"POSITION":3},"indices":4,"material":0}]},{"name":"LanternPole_Chain","primitives":[{"attributes":{"TEXCOORD_0":5,"NORMAL":6,"TANGENT":7,"POSITION":8},"indices":9,"material":0}]},{"name":"LanternPole_Lantern","primitives":[{"attributes":{"TEXCOORD_0":10,"NORMAL":11,"TANGENT":12,"POSITION":13},"indices":14,"material":0}]}],"nodes":[{"name":"LanternPole_Body","mesh":0,"translation":[-3.8231542,13.01603,0.0]},{"name":"LanternPole_Chain","mesh":1,"translation":[-9.582001,21.037872,0.0]},{"name":"LanternPole_Lantern","mesh":2,"translation":[-9.582007,18.009151,0.0]},{"name":"Lantern","children":[0,1,2],"rotation":[0.0,1.0,0.0,0.0]}],"scene":0,"scenes":[{"nodes":[3]}],"textures":[{"source":0},{"source":1},{"source":2},{"source":3}]}